<?xml version="1.0" encoding="UTF-8" standalone="no"?>
<!-- Created with Inkscape (http://www.inkscape.org/) -->

<svg
   version="1.1"
   id="svg1"
   width="512"
   height="512"
   viewBox="0 0 512 512"
   xmlns="http://www.w3.org/2000/svg"
   xmlns:svg="http://www.w3.org/2000/svg">
  <defs
     id="defs1" />
  <g
     id="g1">
    <g
       id="g8"
       transform="matrix(0.4063995,0,0,0.4063995,-170.78125,27.952825)">
      <path
         style="fill:#6ec1fd"
         d="m 468.36573,795.5 c -0.20893,-0.55 -0.26418,-62.425 -0.1228,-137.5 L 468.5,521.5 684.86501,521.30917 c 147.96441,-0.1305 218.54786,-0.5295 223.26981,-1.26214 18.56731,-2.88081 32.10402,-13.16963 37.79585,-28.72739 1.91019,-5.22123 2.20521,-7.70429 1.901,-16 -0.31811,-8.67464 -0.74621,-10.61269 -3.67141,-16.62087 -1.82123,-3.74068 -4.64698,-8.32246 -6.27945,-10.18174 -6.91476,-7.87547 -20.88448,-14.57658 -34.26831,-16.4381 -4.94841,-0.68826 -79.33286,-1.05894 -221.03542,-1.1015 L 469,430.91329 v -43.46331 -43.46331 l 219.25,0.31297 c 219.83255,0.31379 228.89181,0.45197 241.75,3.68725 1.925,0.48436 6.425,1.58843 10,2.4535 6.81546,1.64918 8.79403,2.35869 21,7.53053 42.9907,18.21577 73.6376,62.17685 77.0538,110.52908 0.8159,11.54762 -0.3889,35.75785 -1.9753,39.69483 -0.5108,1.26785 -1.4548,5.23017 -2.0977,8.80517 -0.6428,3.575 -1.5144,6.95 -1.9369,7.5 -0.4225,0.55 -1.0823,2.31141 -1.4663,3.91425 -0.384,1.60284 -2.4537,6.49581 -4.5993,10.87326 -13.8179,28.19067 -38.3487,50.31192 -68.4783,61.75186 -23.54651,8.94039 -40.54253,10.94786 -92.75,10.95503 -24.02623,0.003 -40.75,0.3818 -40.75,0.92227 0,0.50416 0.42534,1.06666 0.94519,1.25 0.51986,0.18333 9.414,8.65833 19.76476,18.83333 59.12871,58.12468 137.05338,133.72052 158.29005,153.55945 9.1308,8.52981 9.8874,9.44151 7.8333,9.43877 -0.7333,-9.7e-4 -30.5833,0.0554 -66.3333,0.12523 l -65,0.127 -5.17241,-4.87523 C 867.09288,784.55618 840.91994,758.91228 780.5,699.44421 751.9,671.29477 720.17777,640.10415 710.00615,630.13171 L 691.51229,612 h -66.75094 -66.75094 l -0.2552,92.07461 -0.25521,92.07461 -44.37721,0.17539 C 484.29541,796.43854 468.61248,796.1496 468.36573,795.5 Z m 563.88567,-0.28725 c -0.2717,-0.70798 0.1831,-2.05798 1.0106,-3 0.8275,-0.94201 2.9378,-4.18775 4.6895,-7.21275 1.7517,-3.025 4.4969,-7.525 6.1005,-10 1.6036,-2.475 3.2254,-5.175 3.6041,-6 0.3786,-0.825 2.3037,-3.975 4.2779,-7 4.8161,-7.37944 20.0209,-32.19161 28.1887,-46 1.7893,-3.025 3.9983,-6.625 4.9089,-8 2.8798,-4.34872 6.4275,-10.08846 15.4526,-25 4.8267,-7.975 10.5967,-17.425 12.8222,-21 2.2255,-3.575 5.2045,-8.38548 6.62,-10.68996 1.4155,-2.30447 4.1928,-6.80447 6.1717,-10 1.979,-3.19552 7.154,-11.57728 11.5,-18.62612 4.3461,-7.04884 10.9258,-17.62384 14.6217,-23.5 3.6959,-5.87616 7.1839,-11.72717 7.7512,-13.00225 0.5673,-1.27509 2.2684,-3.92126 3.7802,-5.88038 2.6293,-3.40724 21.024,-31.93266 36.306,-56.30129 3.9665,-6.325 9.1056,-14.425 11.4202,-18 2.3147,-3.575 5.9236,-9.2 8.02,-12.5 2.0963,-3.3 5.8306,-9.15 8.2985,-13 2.4679,-3.85 5.4746,-8.575 6.6816,-10.5 1.207,-1.925 4.221,-6.65 6.6978,-10.5 2.4767,-3.85 7.5752,-11.95 11.3299,-18 3.7546,-6.05 10.4645,-16.64642 14.9107,-23.5476 4.4463,-6.90117 8.5341,-13.28823 9.0841,-14.19345 1.3194,-2.17151 11.2261,-17.74598 19.2473,-30.25895 3.5257,-5.5 10.249,-16.075 14.9408,-23.5 4.6917,-7.425 10.0905,-15.87783 11.9972,-18.78406 l 3.4668,-5.28405 5.074,7.78405 c 2.7906,4.28123 6.0667,9.35906 7.2801,11.28406 1.2134,1.925 5.1348,8 8.7142,13.5 3.5794,5.5 13.3901,20.8 21.8014,34 8.4114,13.2 16.043,25.125 16.9591,26.5 0.9162,1.375 3.7117,5.65 6.2123,9.5 2.5006,3.85 8.0901,12.4 12.4211,19 4.331,6.6 8.0567,12.42644 8.2793,12.94765 0.2227,0.52121 2.4752,4.16059 5.0056,8.08751 2.5304,3.92692 6.6258,10.38467 9.1008,14.35055 8.0654,12.92385 21.0982,33.45817 25.7771,40.61429 2.5173,3.85 6.4706,9.925 8.7852,13.5 17.3982,26.87232 22.1634,34.17217 25.4586,39 2.0647,3.025 11.6795,17.425 21.3662,32 9.6867,14.575 18.0717,27.175 18.6334,28 1.371,2.01378 24.7618,37.09872 26.0009,39 1.5767,2.41929 24.7102,37.23228 25.8766,38.94102 11.4026,16.70473 50.102,75.40984 50.102,76.00231 0,0.44648 0.6943,1.388 1.5429,2.09226 5.0093,4.15739 12.1706,4.02561 -216.9613,3.99248 -119.8551,-0.0173 -218.1398,-0.25298 -218.4105,-0.52366 -0.2707,-0.27068 0.1923,-1.28241 1.0289,-2.24828 0.8365,-0.96587 3.1875,-4.68113 5.2244,-8.25613 2.0368,-3.575 5.0173,-8.525 6.6233,-11 1.6059,-2.475 3.2426,-5.175 3.637,-6 0.3944,-0.825 2.9361,-5.1 5.6483,-9.5 2.7121,-4.4 7.8229,-12.725 11.3572,-18.5 3.5344,-5.775 8.2602,-13.425 10.5019,-17 2.2416,-3.575 5.2844,-8.525 6.7618,-11 l 2.686,-4.5 106.6197,-0.25452 106.6196,-0.25451 -5.1896,-7.78731 c -2.8543,-4.28301 -6.7215,-10.24348 -8.5939,-13.24548 -1.8724,-3.002 -5.2848,-8.38318 -7.5832,-11.95818 -2.2984,-3.575 -5.4787,-8.75 -7.0674,-11.5 -1.5887,-2.75 -3.2506,-5.45 -3.6931,-6 -0.4425,-0.55 -2.0634,-3.025 -3.6019,-5.5 -7.6315,-12.2765 -12.1036,-19.36078 -17.9912,-28.5 -6.6562,-10.33229 -8.9279,-13.94128 -15.5413,-24.68996 -2.1353,-3.47052 -4.886,-7.88504 -6.1126,-9.81004 -2.0005,-3.13964 -14.0331,-23.04814 -18.9082,-31.28455 -3.6308,-6.13405 -26.891,-44.24122 -30.0406,-49.21545 -1.7413,-2.75 -4.6912,-7.575 -6.5555,-10.72222 -1.8643,-3.14722 -3.6396,-5.47462 -3.9451,-5.172 -0.3056,0.30261 -1.6806,2.49118 -3.0556,4.86348 -1.375,2.3723 -4.525,7.80773 -7,12.07873 -2.475,4.271 -5.625,9.70608 -7,12.07797 -6.9745,12.03105 -13.7578,23.42816 -22.8394,38.37404 -5.5143,9.075 -13.7282,23.025 -18.2531,31 -4.5249,7.975 -8.5105,14.725 -8.8569,15 -0.3464,0.275 -5.3369,8.75515 -11.0902,18.84479 -5.7532,10.08963 -11.5854,20.27655 -12.9604,22.63759 -5.1743,8.88499 -15.5777,26.85644 -17.58,30.36888 -1.144,2.00681 -3.0104,5.22374 -4.1475,7.14874 -2.5715,4.35336 -21.6693,37.65747 -32.5999,56.85004 -4.4949,7.89252 -9.1297,15.99252 -10.2994,18 -1.1698,2.00748 -6.2658,10.84996 -11.3244,19.64996 -5.0586,8.8 -9.5387,16.35215 -9.9557,16.78255 -0.417,0.4304 -26.9908,0.8804 -59.053,1 -46.7698,0.17446 -58.3924,-0.037 -58.7887,-1.0698 z"
         id="path9" />
      <path
         style="fill:#0e4399"
         d="m 469,659 c 0,-75.8761 0.38398,-137 0.86063,-137 0.47335,0 6.09688,6.91868 12.49674,15.37485 6.39986,8.45617 12.20008,15.80575 12.88937,16.33242 1.37002,1.04677 18.28212,2.73481 43.25326,4.3172 8.8,0.55764 20.05,1.44711 25,1.97659 4.95,0.52948 15.525,1.42707 23.5,1.99465 7.975,0.56757 23.95,1.90218 35.5,2.96579 30.64465,2.822 77.05993,6.8176 111,9.55529 9.9,0.79856 28.125,2.33803 40.5,3.42104 47.35531,4.14435 54.88868,4.42296 134.95765,4.99119 76.75668,0.54472 80.33604,0.65062 77.8138,2.30223 -17.75894,11.62893 -36.56927,18.9708 -61.27145,23.91489 -2.75,0.5504 -27.1625,1.23524 -54.25,1.52186 -27.0875,0.28662 -49.25,0.62245 -49.25,0.74629 0,0.27411 26.98004,26.85615 47.5,46.7993 8.25,8.0181 19.33106,18.78767 24.62459,23.93238 5.29352,5.14472 15.64352,15.17234 23,22.2836 7.35647,7.11126 21.9312,21.28626 32.38828,31.5 C 959.96994,746.14331 974.16083,759.9 981.04816,766.5 1007.5604,791.90615 1011,795.25015 1011,795.61926 1011,795.82867 981.45207,796 945.33794,796 h -65.66206 l -20.1001,-19.75 C 848.52073,765.3875 816.76018,734.225 788.99678,707 761.23338,679.775 727.9235,647.03428 714.97482,634.24284 L 691.43177,610.98569 624.46588,611.24284 557.5,611.5 557.24479,703.75 556.98959,796 H 512.99479 469 Z m 564.0425,135.75806 c 0.023,-0.69193 2.0394,-4.40806 4.48,-8.25806 2.4407,-3.85 6.0493,-9.7 8.0192,-13 3.5639,-5.97024 5.498,-9.10562 13.2623,-21.5 2.2396,-3.575 6.672,-10.775 9.8499,-16 11.5724,-19.02701 31.1293,-50.85815 36.8638,-60 1.2075,-1.925 13.7965,-22.4 27.9755,-45.5 14.1789,-23.1 26.8498,-43.6875 28.1575,-45.75 l 2.3777,-3.75 h 53.8191 c 29.6006,0 54.0719,0.25276 54.3808,0.56168 0.309,0.30892 -3.0438,6.72142 -7.4507,14.25 -4.4068,7.52858 -8.8018,15.03832 -9.7668,16.68832 -3.9579,6.7678 -20.4,35.28388 -22.4871,39 -1.2355,2.2 -6.8595,11.875 -12.4977,21.5 -9.6793,16.52375 -12.663,21.72123 -17.2216,30 -1.06,1.925 -3.1371,5.56497 -4.6158,8.08883 -1.4787,2.52386 -9.1172,15.79886 -16.9744,29.5 -7.8572,13.70114 -18.211,31.66117 -23.0085,39.91117 l -8.7227,15 -58.2415,0.25806 c -46.2801,0.20506 -58.2328,-3.2e-4 -58.199,-1 z M 1196,795.41718 c 0,-0.32054 3.885,-6.95804 8.6334,-14.75 4.7484,-7.79195 13.365,-22.04218 19.1479,-31.66718 5.783,-9.625 11.9563,-19.75 13.7186,-22.5 1.7622,-2.75 5.1334,-8.0375 7.4913,-11.75 l 4.2873,-6.75 h 106.3607 C 1429.727,708 1462,707.67916 1462,706.94263 c 0,-0.58155 -1.9207,-3.84405 -4.2682,-7.25 -2.3476,-3.40595 -6.9259,-10.46763 -10.1741,-15.69263 -3.2482,-5.225 -7.338,-11.75 -9.0884,-14.5 -7.0822,-11.12669 -18.0868,-28.65727 -19.9181,-31.73003 -1.0718,-1.79848 -4.4412,-7.09497 -7.4875,-11.76997 -3.0464,-4.675 -6.0468,-9.4 -6.6677,-10.5 -0.6209,-1.1 -5.4731,-8.89064 -10.7828,-17.31253 -5.3097,-8.42189 -9.3932,-15.73439 -9.0746,-16.25 C 1384.8872,581.3735 1405.9689,581 1437.453,581 h 52.335 l 34.4407,51.75 c 18.9424,28.4625 39.3526,59.10042 45.356,68.08426 6.0034,8.98384 11.5903,17.40931 12.4153,18.72325 0.825,1.31395 3.1283,4.76354 5.1184,7.66575 C 1602.4813,749.62723 1631,793.38753 1631,794.55704 1631,795.8099 1602.3455,796 1413.5,796 1293.875,796 1196,795.73773 1196,795.41718 Z"
         id="path8" />
    </g>
  </g>
</svg>
