<?xml version="1.0" encoding="UTF-8" standalone="no"?>
<!-- Created with Inkscape (http://www.inkscape.org/) -->

<svg
   version="1.1"
   id="svg1"
   width="2000"
   height="1125"
   viewBox="0 0 2000 1125"
   xmlns="http://www.w3.org/2000/svg"
   xmlns:svg="http://www.w3.org/2000/svg">
  <defs
     id="defs1" />
  <g
     id="g1">
    <path
       style="fill:#ffffff;fill-opacity:1;stroke:#ffffff;stroke-width:0;stroke-dasharray:none;stroke-opacity:1"
       d="m 409.07489,772.41185 c -0.73693,-1.1924 -0.83605,-21.7781 -0.73903,-153.4828 l 0.0897,-121.74111 216.75,-0.0168 c 132.11508,-0.0103 219.021,-0.38793 222.56603,-0.96719 7.23575,-1.18231 17.21379,-4.67374 21.18133,-7.41158 13.54797,-9.34891 19.43145,-20.43603 19.47805,-36.70544 0.0135,-4.72084 -0.27996,-8.88789 -0.65219,-9.26011 -0.37222,-0.37223 -1.38472,-2.71648 -2.25,-5.20945 -4.06147,-11.70165 -15.32419,-21.7808 -29.07322,-26.01799 -4.675,-1.44074 -9.175,-2.91419 -10,-3.27433 -0.825,-0.36018 -99.6,-0.87984 -219.5,-1.15484 l -218,-0.5 v -43 -43 l 217,-0.31238 c 158.30693,-0.22789 219.29904,-0.004 225.5,0.82694 24.40744,3.27152 35.53722,6.17485 52.5,13.69522 16.67234,7.3916 34.1943,21.08089 45.1706,35.29022 5.6884,7.36385 15.2113,21.99996 17.2421,26.5 10.5559,23.3904 14.5324,47.37988 12.1708,73.4241 -2.9468,32.4987 -14.1357,57.004 -35.92,78.66947 -5.3149,5.28597 -12.1496,11.31277 -15.18817,13.39287 -6.28236,4.3007 -21.22981,12.3825 -24.97533,13.5036 -1.375,0.4115 -4.3,1.5538 -6.5,2.5384 -2.2,0.9846 -5.8,2.1147 -8,2.5113 -2.2,0.3966 -4.47493,1.0948 -5.05541,1.5516 -1.04965,0.826 -13.94414,3.4361 -24.44459,4.948 -3.025,0.4355 -25.525,0.8371 -50,0.8924 l -44.5,0.1005 15.56883,15.2339 c 8.56286,8.3786 29.46897,28.7339 46.45803,45.2339 16.98905,16.5 40.13307,39.0153 51.43116,50.0341 23.01198,22.4432 42.40902,41.1626 54.93891,53.0198 17.40037,16.4661 20.10307,19.1961 20.10307,20.306 0,0.8419 -17.31154,1.1401 -66.19926,1.1401 h -66.19925 l -12.05075,-11.7415 c -6.62791,-6.4579 -28.96081,-28.3954 -49.62868,-48.75 C 728.9107,683.68785 673.447,629.30265 634.6844,591.42025 l -3.32551,-3.25 h -66.46146 -66.46146 l -0.2552,92.25 -0.25521,92.25 -44.18458,0.2603 c -24.30152,0.1432 -44.40126,-0.09 -44.66607,-0.5187 z m 562.87575,-0.201 c -0.6502,-1.0521 1.4984,-5.0406 2.7154,-5.0406 0.4177,0 0.7595,-0.4049 0.7595,-0.8996 0,-0.4948 1.7818,-3.7573 3.9595,-7.25 2.1778,-3.4928 5.6265,-9.2754 7.664,-12.8504 2.0374,-3.575 3.9897,-6.725 4.3384,-7 0.3488,-0.275 1.9568,-2.75 3.5734,-5.5 3.5956,-6.1166 3.4666,-5.9038 11.46466,-18.9174 3.575,-5.8168 7.7285,-12.49 9.2299,-14.8294 1.5015,-2.3393 3.198,-5.1532 3.7701,-6.2532 0.5721,-1.1 2.3524,-4.025 3.9562,-6.5 1.6038,-2.475 4.5936,-7.425 6.6439,-11 2.0502,-3.575 4.0302,-6.725 4.3999,-7 0.3697,-0.275 2.3497,-3.425 4.3999,-7 2.0503,-3.575 5.0418,-8.525 6.6478,-11 1.6059,-2.475 3.2316,-5.175 3.6126,-6 0.7403,-1.6031 8.3689,-13.7137 11.4705,-18.2096 1.0281,-1.4902 1.8692,-2.9672 1.8692,-3.2822 0,-0.315 1.9455,-3.5957 4.3233,-7.2905 8.8192,-13.7039 9.5492,-14.868 12.4372,-19.8321 1.2432,-2.1371 2.8182,-4.7704 3.5,-5.8518 0.6817,-1.0813 3.2109,-5.1313 5.6203,-9 2.4094,-3.8686 5.2219,-8.2531 6.25,-9.7434 1.0281,-1.4902 1.8692,-2.9075 1.8692,-3.1495 0,-0.615 6.6068,-11.1506 12.108,-19.30797 2.5344,-3.75813 6.6969,-10.09547 9.25,-14.08297 2.5531,-3.9875 6.601,-10.2875 8.9953,-14 2.3943,-3.7125 6.1068,-9.54618 8.25,-12.96373 5.5028,-8.77481 13.052,-20.67417 17.9456,-28.28627 2.2982,-3.575 7.4598,-11.675 11.4701,-18 4.0104,-6.325 8.7301,-13.75 10.4882,-16.5 3.1194,-4.87941 9.0282,-14.25046 16.8895,-26.78627 3.8488,-6.13731 8.906,-14.04566 17.0829,-26.71373 2.3076,-3.575 6.5964,-10.325 9.5306,-15 7.0904,-11.29657 14.3809,-22.74004 20.4898,-32.16154 2.75,-4.2412 6.575,-10.27315 8.5,-13.40435 6.2787,-10.21288 9.8988,-15.91545 10.75,-16.93411 0.4596,-0.55 2.3119,-3.5875 4.1162,-6.75 1.8043,-3.1625 3.665,-5.75 4.1348,-5.75 0.4698,0 2.5743,2.74866 4.6766,6.10813 2.1023,3.35947 4.4974,7.16336 5.3224,8.45309 0.825,1.28974 3.2768,5.17858 5.4483,8.64188 2.1716,3.46329 7.3466,11.46617 11.5,17.78417 4.1535,6.318 7.7785,11.943 8.0556,12.5 0.7729,1.55323 7.8515,12.50691 11.0997,17.17621 1.593,2.28991 2.8964,4.41328 2.8964,4.7186 0,0.30532 1.7431,3.15676 3.8735,6.33653 4.929,7.35665 19.578,29.91203 28.5444,43.95036 3.8048,5.95707 9.3847,14.65603 12.3997,19.33103 3.015,4.675 6.6519,10.37222 8.0821,12.66049 1.4302,2.28827 5.5253,8.77076 9.1003,14.40554 3.575,5.63478 6.7269,10.73756 7.0043,11.33951 0.2774,0.60195 3.5981,5.81946 7.3794,11.59446 3.7813,5.775 8.4683,12.975 10.4157,16 1.9473,3.025 6.7677,10.45 10.7118,16.5 3.9442,6.05 8.9235,13.7 11.0652,17 2.1417,3.3 5.5862,8.25004 7.6545,11.00004 2.0683,2.75 3.7624,5.525 3.7648,6.1666 0,0.6417 0.3418,1.3167 0.7543,1.5 0.7888,0.3506 24.46,35.4258 25.1499,37.2664 0.22,0.5868 0.67,1.292 1,1.567 0.8689,0.724 24.5244,36.1284 25,37.4166 0.22,0.5959 0.67,1.3084 1,1.5834 0.8288,0.6905 7.1001,9.9572 7.1001,10.4912 0,0.238 2.7,4.292 6,9.0088 3.3,4.7168 6,8.7877 6,9.0466 0,0.2589 1.2375,2.2136 2.75,4.3439 1.5125,2.1303 3.317,4.7139 4.0099,5.7414 3.5329,5.2382 13.3153,19.9565 18.8546,28.3681 3.4409,5.225 6.7352,10.0435 7.3208,10.7077 0.5856,0.6643 1.0647,1.4582 1.0647,1.7641 0,0.306 3.4664,5.6125 7.7032,11.7922 4.2367,6.1798 9.6105,14.161 11.9416,17.736 2.3312,3.575 4.7148,7.0435 5.2969,7.7077 0.582,0.6643 1.0583,1.5219 1.0583,1.9057 0,0.3838 1.0869,2.1228 2.4154,3.8645 1.3284,1.7417 2.5659,4.0341 2.75,5.0944 0.3295,1.8981 -3.0233,1.9315 -218.4154,2.1799 -196.5802,0.2267 -218.75,0.096 -218.75,-1.2905 0,-0.8485 0.8296,-2.762 1.8436,-4.2522 1.0139,-1.4903 2.9669,-4.5095 4.3398,-6.7095 1.373,-2.2 3.3559,-5.35 4.4065,-7 1.0505,-1.65 2.1351,-3.45 2.4101,-4 1.1499,-2.2999 6.4485,-11.0392 6.9723,-11.5 0.3126,-0.275 1.1248,-1.625 1.8049,-3 0.6801,-1.375 4.5873,-7.9 8.6828,-14.5 4.0954,-6.6 8.6704,-14.025 10.1665,-16.5 1.4961,-2.475 5.1326,-8.2125 8.0812,-12.75 l 5.361,-8.25 h 105.9657 c 60.1202,0 105.9656,-0.3797 105.9656,-0.8776 0,-0.4827 -0.675,-1.4378 -1.5,-2.1224 -0.825,-0.6847 -1.5,-1.7146 -1.5,-2.2886 0,-0.574 -0.6966,-1.7564 -1.548,-2.6276 -0.8514,-0.8711 -4.7453,-6.7588 -8.6532,-13.0838 -6.7794,-10.9729 -14.1646,-22.614 -17.7634,-28 -0.9188,-1.375 -1.9849,-3.175 -2.3691,-4 -0.3843,-0.825 -1.9289,-3.3987 -3.4325,-5.7194 -1.5036,-2.3206 -5.1934,-8.1706 -8.1996,-13 -3.0061,-4.8293 -6.5019,-10.3556 -7.7683,-12.2806 -3.38,-5.1378 -3.9709,-6.0545 -7.0902,-11 -1.5611,-2.475 -5.5615,-8.775 -8.8898,-14 -3.3283,-5.225 -6.9408,-11.075 -8.0278,-13 -2.9971,-5.3079 -18.946,-31.80859 -28.286,-47.00004 -4.5651,-7.425 -11.2638,-18.31995 -14.8861,-24.21099 -7.3647,-11.97746 -10.4856,-17.22005 -12.2268,-20.53936 -1.1798,-2.2489 -1.1819,-2.24826 -3.2082,1 -1.1152,1.78769 -2.7617,4.60035 -3.6588,6.25035 -0.8972,1.65 -2.5681,4.575 -3.7131,6.5 -1.145,1.925 -5.2578,8.9 -9.1395,15.5 -3.8816,6.6 -9.572,16.275 -12.6453,21.5 -3.0732,5.225 -8.0745,13.55 -11.1139,18.5 -3.0394,4.95 -8.0447,13.5 -11.1229,19.00004 -3.0783,5.5 -5.858,10.225 -6.1772,10.5 -0.3191,0.275 -1.4803,2.1455 -2.5803,4.1568 -1.1,2.0113 -4.025,7.1425 -6.5,11.4026 -2.475,4.2602 -5.2282,9.0221 -6.1183,10.5821 -0.8901,1.5599 -2.0824,3.4037 -2.6496,4.0973 -0.5672,0.6937 -2.4595,3.9612 -4.205,7.2612 -1.7456,3.3 -7.3033,13.0808 -12.3504,21.7352 -5.0472,8.6543 -13.8839,23.9543 -19.6371,34 -5.7533,10.0456 -10.7033,18.4898 -11,18.7648 -0.6241,0.5783 -3.0101,4.7712 -5.9751,10.5 -1.1386,2.2 -3.163,5.8 -4.4986,8 -1.3357,2.2 -3.1518,5.5592 -4.036,7.4649 -0.8841,1.9057 -1.9275,3.7061 -2.3187,4.0008 -0.3912,0.2947 -1.5684,2.1104 -2.6161,4.035 -4.3207,7.9372 -26.5443,46.5748 -27.3206,47.4993 -0.4619,0.55 -1.6107,2.575 -2.553,4.5 -3.7548,7.6705 2.2826,7 -63.0227,7 -36.31916,0 -58.80606,-0.3646 -59.17366,-0.9594 z"
       id="path1" />
  </g>
</svg>
